<svg xmlns="http://www.w3.org/2000/svg" xmlns:xlink="http://www.w3.org/1999/xlink" xmlns:inkscape="http://www.inkscape.org/namespaces/inkscape" version="1.1" width="212.598" height="70.8661" viewBox="0 0 212.598 70.8661">
<defs>
<clipPath id="clip_0">
<path transform="matrix(1,0,0,-1,0,70.8661)" d="M0 70.866H212.598V0H0Z"/>
</clipPath>
</defs>
<g inkscape:groupmode="layer" inkscape:label="Livello 1">
<g clip-path="url(#clip_0)">
<path transform="matrix(1,0,0,-1,66.5581,49.533098)" d="M0 0C-1.518-.975-3.946-.993-5.472 0-6.884 .934-8.049 3.079-7.499 5.285-7.034 7.094-5.361 8.687-3.153 8.848-.153 9.051 2.125 6.963 2.144 4.094 2.155 2.429 1.201 .772 0 0M-4.518 5.107C-5.511 3.04-2.831 1.338-1.428 2.669-1.086 2.991-.836 3.702-.836 4.153-.825 6.14-3.513 6.741-4.518 5.107" fill="#f78e1e"/>
<path transform="matrix(1,0,0,-1,66.5581,49.533098)" stroke-width=".989" stroke-linecap="butt" stroke-miterlimit="4" stroke-linejoin="miter" fill="none" stroke="#f78e1e" d="M0 0C-1.518-.975-3.946-.993-5.472 0-6.884 .934-8.049 3.079-7.499 5.285-7.034 7.094-5.361 8.687-3.153 8.848-.153 9.051 2.125 6.963 2.144 4.094 2.155 2.429 1.201 .772 0 0ZM-4.518 5.107C-5.511 3.04-2.831 1.338-1.428 2.669-1.086 2.991-.836 3.702-.836 4.153-.825 6.14-3.513 6.741-4.518 5.107Z"/>
<path transform="matrix(1,0,0,-1,74.0479,31.132699)" d="M0 0C1.127-.041 1.918-.01 2.652-.01 3.253-.01 3.804-.03 4.466-.12 4.479-3.371 4.557-4.475 4.466-7.064 3.243-5.298 1.769-3.611 .123-2.077-1.463-.602-3.5 .792-5.646 1.546-12.34 3.883-19.401 .962-22.775-2.971-24.088-4.496-25.259-6.111-25.923-8.128-26.735-10.565-27.186-13.733-26.996-16.915-30.829-16.906-34.391-16.975-38.062-16.975-39.346-16.975-40.592-17.117-41.744-17.035-44.161-16.856-46.36-15.501-47.692-14.247-49.028-13.004-50.01-11.167-50.432-9.2-51.578-3.821-49.648 .441-46.331 2.789-44.725 3.922-42.204 4.555-39.667 4.743-36.636 4.986-34.369 4.035-32.824 2.669-32.142 2.067-31.853 1.235-30.979 .713-30.057 1.385-29.375 2.317-28.601 3.152-26.273 5.667-23.995 8.177-21.71 10.685-23.574 12.941-25.823 14.857-28.421 16.325-31.268 17.919-35.855 19.604-40.141 19.291-44.001 19.002-47.512 18.048-50.492 16.793-53.48 15.541-56.123 13.715-58.29 11.688-60.507 9.61-62.131 7.003-63.283 3.804-63.836 2.237-64.318 .573-64.529-1.362-64.729-3.259-65.02-5.408-64.83-7.533-64.247-13.886-62.031-19.084-58.52-23.083-56.068-25.884-52.549-28.152-48.708-29.677-47.404-30.197-45.938-30.781-44.541-30.984-43.309-31.164-41.882-31.032-40.502-31.039-31.36-31.073-21.638-31.039-12.43-31.039-10.834-31.039-9.176-31.194-7.662-31.039-6.219-30.891-4.72-30.24-3.508-29.677-.29-28.191 1.918-25.818 3.453-22.846 3.766-22.243 3.895-21.539 4.346-20.949 5.158-23.274 6.332-25.482 7.918-27.299 9.414-29.013 11.37-30.669 14.22-30.921 14.912-30.984 15.644-30.964 16.417-30.932 17.198-30.91 18.022-30.872 18.864-30.921 19.093-29.888 18.936-28.463 18.977-27.237 20.708-28.322 22.184-30.218 24.573-30.921 26.328-31.443 28.556-30.899 30.813-31.104 30.923-25.998 30.873-20.779 30.873-15.731 30.873-9.924 30.785-6.341 30.873-1.305 31.784-1.345 32.859-1.223 33.672-1.362 33.734-6.763 33.794-11.547 33.794-16.734 33.794-18.51 33.605-20.429 33.794-22.143 33.894-23.115 34.401-24.31 34.918-25.223 37.184-29.226 40.776-31.836 47.405-31.039 47.487-20.025 47.405-8.948 47.286 2.137 43.686 2.175 39.913 2.057 36.402 2.196 36.44 3.32 36.333 4.606 36.46 5.64 39.952 5.815 43.854 5.575 47.347 5.758 47.166 7.083 47.588 8.488 47.347 9.852 47.268 10.313 46.904 10.885 46.636 11.456 45.713 13.451 44.617 14.97 43.186 16.264 41.026 18.211 38.165 19.203 33.853 18.811 33.672 15.471 33.904 11.718 33.734 8.368H30.873C29.979 10.572 28.967 12.912 27.422 14.839 26.047 16.556 24.081 18.51 21.424 18.811 20.188 18.951 18.603 18.763 17.198 18.752V13.775C16.104 14.769 15.042 15.983 13.687 16.856 12.374 17.708 10.87 18.632 8.984 18.811 7.627 18.951 6.043 18.708 4.407 18.811 4.228 15.369 4.466 11.518 4.287 8.075 2.992 7.906 1.295 8.125 0 7.955-.159 5.287 .091 2.828 0 0M113.373-26.118C114.338-27.049 115.41-28.043 116.643-28.966 117.658-29.727 119.173-30.891 120.625-31.104 121.972-31.292 123.63-31.012 125.15-31.039 125.224-20.187 125.063-8.909 125.093 2.256 121.557 2.468 117.456 2.114 114.027 2.438 114.067 3.421 113.945 4.565 114.084 5.457H124.97C124.801 6.671 125.19 7.998 124.97 9.259 124.88 9.733 124.551 10.305 124.318 10.863 123.616 12.541 122.753 14.035 121.698 15.188 120.286 16.744 118.12 18.26 115.81 18.521 114.263 18.691 112.593 18.389 111.174 18.46 110.994 17.307 111.227 15.754 111.054 14.598 109.04 16.173 107.103 18.31 103.793 18.641 103.311 18.691 102.778 18.691 102.216 18.671 101.333 18.653 100.381 18.592 99.507 18.581 99.376 17.268 99.49 15.711 99.458 14.307 97.291 15.924 95.254 18.239 91.783 18.641 89.836 18.861 87.598 18.641 85.472 18.641H72.75C71.497 18.641 70.303 18.653 69.158 18.641 65.918 18.619 63.148 18.4 60.911 17.097 58.606 15.754 56.89 13.473 56.034 10.564 55.406 8.417 55.554 5.719 55.554 2.847 55.554-4.997 55.322-12.922 55.382-20.599 55.382-21.309 55.231-22.024 55.322-22.615 55.485-23.739 56.116-24.92 56.688-25.876 58.915-29.578 62.586-31.984 68.765-31.454 68.937-25.685 68.708-19.854 68.879-14.127 72.829-13.985 77.035-14.105 81.079-14.067 81.126-10.104 81.035-4.535 81.079 .301 79.604 .309 78.108 .309 76.603 .301 74.077 .289 71.547 .272 69.12 .36V4.273C75.438 4.232 81.628 4.395 87.56 4.214 87.499-3.692 87.657-10.465 87.56-17.448H75.481C74.978-23.585 77.294-28.161 81.429-30.152 82.462-30.647 83.616-31.202 84.758-31.344 86.434-31.535 88.039-31.194 89.939-31.344 90.076-29.827 89.958-28.072 89.997-26.466 91.663-28.031 93.538-29.735 95.825-30.743 97.591-31.524 99.627-31.353 102.306-31.344 102.357-29.677 102.216-28.052 102.426-26.526 103.238-27.438 104.104-28.423 105.167-29.267 106.141-30.03 107.334-30.921 108.788-31.104 109.277-31.164 109.794-31.164 110.341-31.14 111.245-31.114 112.22-31.032 113.251-31.104 113.437-29.578 113.193-27.642 113.373-26.118M130.03-37.695H129.907-68.161-68.331V28.555L-68.279 28.725H129.966L130.088 28.664C130.048 6.572 130.157-15.692 130.03-37.695" fill="#ffffff"/>
<path transform="matrix(1,0,0,-1,190.6904,60.098497)" d="M0 0C-1.232 .923-2.305 1.917-3.27 2.848-3.449 1.324-3.206-.612-3.392-2.138-4.423-2.066-5.397-2.148-6.302-2.174L-6.22-.159C-6.051-.178-5.878-.178-5.707-.178-5.648 10.788-5.77 23.488-5.77 34.483-5.77 35.277-5.638 36.169-5.77 36.862-5.847 37.303-6.198 37.796-6.419 38.287-8.013 41.738-10.494 44.516-14.394 45.409L-14.427 47.637C-13.864 47.657-13.332 47.657-12.85 47.606-9.54 47.275-7.603 45.139-5.589 43.563-5.416 44.72-5.648 46.272-5.469 47.426-4.05 47.354-2.38 47.657-.833 47.486 1.478 47.226 3.644 45.71 5.056 44.154 6.11 43.001 6.974 41.507 7.676 39.829 7.908 39.271 8.237 38.699 8.327 38.225 8.548 36.964 8.158 35.637 8.327 34.423H-2.559C-2.697 33.531-2.575 32.387-2.615 31.403 .813 31.08 4.914 31.434 8.45 31.222 8.42 20.057 8.581 8.779 8.508-2.073 6.987-2.046 5.329-2.326 3.982-2.138 2.53-1.925 1.016-.761 0 0M-3.089 44.759V36.502C-.481 36.409 3.017 36.398 5.831 36.502 4.536 40.936 2.017 44.133-3.089 44.759M5.949 28.905C2.53 28.915 .283 28.915-3.148 28.905V13.415C-3.148 11.388-3.431 8.779-2.979 7.244-2.688 6.269-2.126 5.178-1.665 4.454-.06 1.958 2.65 .634 6.01 0V14.778C6.01 19.062 5.889 23.85 5.949 28.905" fill="#f78e1e"/>
<path transform="matrix(1,0,0,-1,190.6904,60.098497)" stroke-width="1.2" stroke-linecap="butt" stroke-miterlimit="4" stroke-linejoin="miter" fill="none" stroke="#f78e1e" d="M0 0C-1.232 .923-2.305 1.917-3.27 2.848-3.449 1.324-3.206-.612-3.392-2.138-4.423-2.066-5.397-2.148-6.302-2.174L-6.22-.159C-6.051-.178-5.878-.178-5.707-.178-5.648 10.788-5.77 23.488-5.77 34.483-5.77 35.277-5.638 36.169-5.77 36.862-5.847 37.303-6.198 37.796-6.419 38.287-8.013 41.738-10.494 44.516-14.394 45.409L-14.427 47.637C-13.864 47.657-13.332 47.657-12.85 47.606-9.54 47.275-7.603 45.139-5.589 43.563-5.416 44.72-5.648 46.272-5.469 47.426-4.05 47.354-2.38 47.657-.833 47.486 1.478 47.226 3.644 45.71 5.056 44.154 6.11 43.001 6.974 41.507 7.676 39.829 7.908 39.271 8.237 38.699 8.327 38.225 8.548 36.964 8.158 35.637 8.327 34.423H-2.559C-2.697 33.531-2.575 32.387-2.615 31.403 .813 31.08 4.914 31.434 8.45 31.222 8.42 20.057 8.581 8.779 8.508-2.073 6.987-2.046 5.329-2.326 3.982-2.138 2.53-1.925 1.016-.761 0 0ZM-3.089 44.759V36.502C-.481 36.409 3.017 36.398 5.831 36.502 4.536 40.936 2.017 44.133-3.089 44.759ZM5.949 28.905C2.53 28.915 .283 28.915-3.148 28.905V13.415C-3.148 11.388-3.431 8.779-2.979 7.244-2.688 6.269-2.126 5.178-1.665 4.454-.06 1.958 2.65 .634 6.01 0V14.778C6.01 19.062 5.889 23.85 5.949 28.905Z"/>
<path transform="matrix(1,0,0,-1,45.4468,27.980397)" d="M0 0C-.773-.835-1.456-1.768-2.378-2.439-3.251-1.917-3.541-1.085-4.223-.483-5.768 .883-8.035 1.834-11.065 1.591-13.603 1.402-16.124 .77-17.73-.363-21.047-2.711-22.977-6.974-21.831-12.353-21.409-14.319-20.427-16.156-19.091-17.399-17.759-18.653-15.56-20.009-13.143-20.188-11.991-20.27-10.745-20.127-9.46-20.127-5.79-20.127-2.228-20.059 1.605-20.067 1.415-16.886 1.866-13.718 2.678-11.28 3.342-9.264 4.513-7.648 5.826-6.123 9.2-2.19 16.261 .73 22.955-1.606 25.102-2.36 27.138-3.754 28.724-5.229 30.37-6.764 31.844-8.45 33.067-10.217 33.158-7.627 33.08-6.523 33.067-3.272 32.405-3.183 31.854-3.162 31.253-3.162L31.239-1.377C32.547-1.377 33.9-1.314 35.085-1.428 35.196-6.544 35.143-12.041 35.143-17.22 35.143-19.013 34.953-20.851 35.143-22.494 35.83-28.305 39.501-31.545 44.967-32.419L45.019-34.084C44.245-34.116 43.513-34.137 42.821-34.073 39.971-33.821 38.015-32.165 36.52-30.451 34.933-28.635 33.759-26.427 32.947-24.102 32.496-24.691 32.367-25.396 32.054-25.998 30.519-28.971 28.311-31.344 25.093-32.829 23.881-33.393 22.382-34.043 20.939-34.191 19.425-34.347 17.767-34.191 16.171-34.191 6.963-34.191-2.759-34.226-11.901-34.191-13.281-34.185-14.708-34.316-15.94-34.137-17.336-33.934-18.803-33.35-20.106-32.829-23.948-31.305-27.467-29.036-29.918-26.235-33.43-22.236-35.646-17.038-36.229-10.686-36.419-8.561-36.127-6.411-35.928-4.515-35.717-2.579-35.235-.915-34.682 .651-33.53 3.851-31.906 6.458-29.689 8.535-27.522 10.563-24.879 12.389-21.891 13.641-18.911 14.896-15.4 15.85-11.54 16.139-7.254 16.452-2.667 14.767 .18 13.173 2.778 11.705 5.027 9.789 6.891 7.532 4.606 5.024 2.328 2.515 0 0M-8.93 13.173C-11.659 13.383-14.226 13.021-16.414 12.458-19.373 11.695-22.001 10.481-24.148 8.837-25.225 8.016-26.326 7.231-27.238 6.229-29.005 4.291-30.49 1.955-31.584-.775-32.114-2.099-32.406-3.635-32.778-5.229-34.161-11.25-32.506-17.318-30.219-21.31-27.671-25.768-23.448-29.168-18.14-30.872-16.262-31.475-14.125-32.086-12.021-32.234-8.728-32.469-5.338-32.177-1.966-32.177 1.395-32.177 4.635-32.187 8.146-32.118 5.469-29.7 2.647-27.433 1.787-23.218H-5.238C-7.573-23.218-9.982-23.438-12.307-23.218-13.293-23.12-14.349-22.786-15.29-22.449-18.16-21.4-20.527-19.996-22.135-17.99-22.773-17.179-23.497-16.027-23.861-15.082-24.992-12.081-24.804-8.379-23.969-5.473-23.448-3.606-22.766-2.271-21.831-.956-20.866 .408-19.643 1.591-18.259 2.423-15.259 4.24-10.834 4.654-7.204 3.608-5.127 3.028-3.913 2.023-2.498 .883-1.434 1.823-.462 2.897 .47 3.97 1.424 5.064 2.398 6.119 3.33 7.231 .795 10.299-3.792 12.78-8.93 13.173M17.958-31.758C21.98-31.706 25.093-30.149 27.361-27.965 29.597-25.798 31.481-22.928 31.763-19.115 31.905-17.109 31.734-15.322 31.283-13.778 30.649-11.62 29.247-9.344 27.6-7.718 25.522-5.691 22.584-4.147 19.212-3.864 15.36-3.543 12.24-4.667 9.75-6.411 6.642-8.6 4.438-11.952 3.98-16.386 3.711-19.105 4.375-21.111 4.997-23.218 6.42-26.038 8.167-28.202 10.947-29.797 12.842-30.893 15.23-31.794 17.958-31.758" fill="#f78e1e"/>
<path transform="matrix(1,0,0,-1,45.4468,27.980397)" stroke-width="1.2" stroke-linecap="butt" stroke-miterlimit="4" stroke-linejoin="miter" fill="none" stroke="#f78e1e" d="M0 0C-.773-.835-1.456-1.768-2.378-2.439-3.251-1.917-3.541-1.085-4.223-.483-5.768 .883-8.035 1.834-11.065 1.591-13.603 1.402-16.124 .77-17.73-.363-21.047-2.711-22.977-6.974-21.831-12.353-21.409-14.319-20.427-16.156-19.091-17.399-17.759-18.653-15.56-20.009-13.143-20.188-11.991-20.27-10.745-20.127-9.46-20.127-5.79-20.127-2.228-20.059 1.605-20.067 1.415-16.886 1.866-13.718 2.678-11.28 3.342-9.264 4.513-7.648 5.826-6.123 9.2-2.19 16.261 .73 22.955-1.606 25.102-2.36 27.138-3.754 28.724-5.229 30.37-6.764 31.844-8.45 33.067-10.217 33.158-7.627 33.08-6.523 33.067-3.272 32.405-3.183 31.854-3.162 31.253-3.162L31.239-1.377C32.547-1.377 33.9-1.314 35.085-1.428 35.196-6.544 35.143-12.041 35.143-17.22 35.143-19.013 34.953-20.851 35.143-22.494 35.83-28.305 39.501-31.545 44.967-32.419L45.019-34.084C44.245-34.116 43.513-34.137 42.821-34.073 39.971-33.821 38.015-32.165 36.52-30.451 34.933-28.635 33.759-26.427 32.947-24.102 32.496-24.691 32.367-25.396 32.054-25.998 30.519-28.971 28.311-31.344 25.093-32.829 23.881-33.393 22.382-34.043 20.939-34.191 19.425-34.347 17.767-34.191 16.171-34.191 6.963-34.191-2.759-34.226-11.901-34.191-13.281-34.185-14.708-34.316-15.94-34.137-17.336-33.934-18.803-33.35-20.106-32.829-23.948-31.305-27.467-29.036-29.918-26.235-33.43-22.236-35.646-17.038-36.229-10.686-36.419-8.561-36.127-6.411-35.928-4.515-35.717-2.579-35.235-.915-34.682 .651-33.53 3.851-31.906 6.458-29.689 8.535-27.522 10.563-24.879 12.389-21.891 13.641-18.911 14.896-15.4 15.85-11.54 16.139-7.254 16.452-2.667 14.767 .18 13.173 2.778 11.705 5.027 9.789 6.891 7.532 4.606 5.024 2.328 2.515 0 0ZM-8.93 13.173C-11.659 13.383-14.226 13.021-16.414 12.458-19.373 11.695-22.001 10.481-24.148 8.837-25.225 8.016-26.326 7.231-27.238 6.229-29.005 4.291-30.49 1.955-31.584-.775-32.114-2.099-32.406-3.635-32.778-5.229-34.161-11.25-32.506-17.318-30.219-21.31-27.671-25.768-23.448-29.168-18.14-30.872-16.262-31.475-14.125-32.086-12.021-32.234-8.728-32.469-5.338-32.177-1.966-32.177 1.395-32.177 4.635-32.187 8.146-32.118 5.469-29.7 2.647-27.433 1.787-23.218H-5.238C-7.573-23.218-9.982-23.438-12.307-23.218-13.293-23.12-14.349-22.786-15.29-22.449-18.16-21.4-20.527-19.996-22.135-17.99-22.773-17.179-23.497-16.027-23.861-15.082-24.992-12.081-24.804-8.379-23.969-5.473-23.448-3.606-22.766-2.271-21.831-.956-20.866 .408-19.643 1.591-18.259 2.423-15.259 4.24-10.834 4.654-7.204 3.608-5.127 3.028-3.913 2.023-2.498 .883-1.434 1.823-.462 2.897 .47 3.97 1.424 5.064 2.398 6.119 3.33 7.231 .795 10.299-3.792 12.78-8.93 13.173ZM17.958-31.758C21.98-31.706 25.093-30.149 27.361-27.965 29.597-25.798 31.481-22.928 31.763-19.115 31.905-17.109 31.734-15.322 31.283-13.778 30.649-11.62 29.247-9.344 27.6-7.718 25.522-5.691 22.584-4.147 19.212-3.864 15.36-3.543 12.24-4.667 9.75-6.411 6.642-8.6 4.438-11.952 3.98-16.386 3.711-19.105 4.375-21.111 4.997-23.218 6.42-26.038 8.167-28.202 10.947-29.797 12.842-30.893 15.23-31.794 17.958-31.758Z"/>
<path transform="matrix(1,0,0,-1,140.4873,32.969598)" d="M0 0C-.131 2.577-.021 5.91-.06 8.78 7.411 8.789 13.744 8.388 20.698 8.84 20.838 11.619 20.771 14.819 20.698 18.162H6.069C4.985 18.162 3.843 18.241 2.738 18.241L2.719 20.478C3.863 20.49 5.058 20.478 6.311 20.478H19.032C21.158 20.478 23.396 20.698 25.344 20.478 28.814 20.076 30.852 17.761 33.019 16.144 33.051 17.548 32.937 19.104 33.067 20.418 33.941 20.429 34.894 20.49 35.776 20.508L35.81 18.28 35.749 18.101V-9.853C35.749-13.182 35.587-16.223 35.81-18.108 36.158-21.109 37.623-24.179 39.496-25.643 40.635-26.534 42.2-27.197 43.983-27.288L43.901-29.303C43.354-29.327 42.838-29.327 42.349-29.267 40.895-29.084 39.701-28.193 38.728-27.43 37.665-26.586 36.799-25.602 35.986-24.689 35.776-26.215 35.918-27.84 35.866-29.507 33.188-29.516 31.151-29.688 29.386-28.906 27.099-27.898 25.224-26.194 23.558-24.629 23.519-26.235 23.637-27.99 23.5-29.507 21.6-29.357 19.994-29.698 18.318-29.507 17.177-29.365 16.022-28.811 14.989-28.315 10.854-26.324 8.538-21.748 9.042-15.611H21.12C21.218-8.628 21.06-1.855 21.12 6.051 15.188 6.231 8.999 6.069 2.681 6.11V2.197C5.107 2.109 7.638 2.126 10.163 2.138L10.174-.05C6.772-.05 3.302-.118 0 0M33.432 5.045C33.432 6.522 33.68 8.367 33.432 9.671 33.289 10.396 32.598 11.357 32.127 12.102 30.25 15.062 27.72 17.447 24.029 18.28L23.968 18.101C23.929 7.313 24.029-3.069 24.029-13.354 24.029-15.521 23.915-17.788 24.389-19.292 24.853-20.8 25.361-21.778 26.175-22.976 27.679-25.182 30.08-27.005 33.488-27.005 33.529-16.597 33.432-5.488 33.432 5.045M11.005-18.461C11.467-24.298 15.279-26.774 20.639-27.72 20.737-24.711 20.737-21.289 20.639-18.28H11.126C11.047-18.308 11.005-18.359 11.005-18.461" fill="#f78e1e"/>
<path transform="matrix(1,0,0,-1,140.4873,32.969598)" stroke-width="1.2" stroke-linecap="butt" stroke-miterlimit="4" stroke-linejoin="miter" fill="none" stroke="#f78e1e" d="M0 0C-.131 2.577-.021 5.91-.06 8.78 7.411 8.789 13.744 8.388 20.698 8.84 20.838 11.619 20.771 14.819 20.698 18.162H6.069C4.985 18.162 3.843 18.241 2.738 18.241L2.719 20.478C3.863 20.49 5.058 20.478 6.311 20.478H19.032C21.158 20.478 23.396 20.698 25.344 20.478 28.814 20.076 30.852 17.761 33.019 16.144 33.051 17.548 32.937 19.104 33.067 20.418 33.941 20.429 34.894 20.49 35.776 20.508L35.81 18.28 35.749 18.101V-9.853C35.749-13.182 35.587-16.223 35.81-18.108 36.158-21.109 37.623-24.179 39.496-25.643 40.635-26.534 42.2-27.197 43.983-27.288L43.901-29.303C43.354-29.327 42.838-29.327 42.349-29.267 40.895-29.084 39.701-28.193 38.728-27.43 37.665-26.586 36.799-25.602 35.986-24.689 35.776-26.215 35.918-27.84 35.866-29.507 33.188-29.516 31.151-29.688 29.386-28.906 27.099-27.898 25.224-26.194 23.558-24.629 23.519-26.235 23.637-27.99 23.5-29.507 21.6-29.357 19.994-29.698 18.318-29.507 17.177-29.365 16.022-28.811 14.989-28.315 10.854-26.324 8.538-21.748 9.042-15.611H21.12C21.218-8.628 21.06-1.855 21.12 6.051 15.188 6.231 8.999 6.069 2.681 6.11V2.197C5.107 2.109 7.638 2.126 10.163 2.138L10.174-.05C6.772-.05 3.302-.118 0 0ZM33.432 5.045C33.432 6.522 33.68 8.367 33.432 9.671 33.289 10.396 32.598 11.357 32.127 12.102 30.25 15.062 27.72 17.447 24.029 18.28L23.968 18.101C23.929 7.313 24.029-3.069 24.029-13.354 24.029-15.521 23.915-17.788 24.389-19.292 24.853-20.8 25.361-21.778 26.175-22.976 27.679-25.182 30.08-27.005 33.488-27.005 33.529-16.597 33.432-5.488 33.432 5.045ZM11.005-18.461C11.467-24.298 15.279-26.774 20.639-27.72 20.737-24.711 20.737-21.289 20.639-18.28H11.126C11.047-18.308 11.005-18.359 11.005-18.461Z"/>
<path transform="matrix(1,0,0,-1,62.0405,44.425699)" d="M0 0C1.004 1.634 3.692 1.032 3.682-.954 3.682-1.405 3.431-2.116 3.089-2.438 1.687-3.77-.994-2.067 0 0" fill="#ffffff"/>
<path transform="matrix(1,0,0,-1,62.0405,44.425699)" stroke-width=".989" stroke-linecap="butt" stroke-miterlimit="4" stroke-linejoin="miter" fill="none" stroke="#f78e1e" d="M0 0C1.004 1.634 3.692 1.032 3.682-.954 3.682-1.405 3.431-2.116 3.089-2.438 1.687-3.77-.994-2.067 0 0Z"/>
<path transform="matrix(1,0,0,-1,93.0244,58.369997)" d="M0 0C-.041-1.226 .117-2.65-.113-3.684-.955-3.635-1.778-3.673-2.559-3.694L-2.611-2.029C-2.501 7.913-2.781 18.647-2.611 28.843-1.717 28.802-.673 28.923 .117 28.783 .127 23.255 .179 17.426 .179 11.624 .179 9.129-.073 6.076 .539 4.323 1.714 .951 5.324-.924 9.219-1.546 9.307 9.342 9.068 18.729 9.219 29.133 10.964 29.175 12.87 29.063 14.515 29.193V32.877C12.962 33.038 10.913 32.834 9.518 32.995 8.614 38.614 5.847 42.386 .479 43.563L.419 43.38C.378 40.059 .5 36.577 .36 33.348-.634 33.388-1.778 33.279-2.67 33.405-2.912 37.87-5.31 40.329-8.089 42.196-9.133 42.899-10.435 43.511-11.832 43.501-12.012 40.24-11.771 36.559-11.95 33.287-13.515 33.117-15.503 33.348-17.069 33.178-17.168 31.901-17.138 30.196-17.127 29.021-16.869 29.013-16.597 29.013-16.338 29.013L-16.325 27.228C-17.059 27.228-17.849 27.196-18.977 27.237-18.885 30.065-19.136 32.524-18.977 35.192-17.682 35.362-15.984 35.144-14.69 35.313-14.51 38.755-14.749 42.606-14.57 46.048-12.933 45.945-11.35 46.188-9.993 46.048-8.107 45.869-6.603 44.945-5.29 44.094-3.935 43.221-2.872 42.006-1.778 41.013V45.989C-.374 46 1.211 46.188 2.448 46.048 5.104 45.747 7.07 43.793 8.445 42.076 9.991 40.149 11.003 37.81 11.896 35.605H14.758C14.928 38.955 14.695 42.708 14.876 46.048 19.188 46.44 22.05 45.448 24.209 43.501 25.641 42.207 26.736 40.688 27.659 38.693 27.928 38.122 28.291 37.551 28.37 37.089 28.611 35.726 28.189 34.32 28.37 32.995 24.878 32.813 20.976 33.053 17.483 32.877 17.356 31.844 17.464 30.558 17.426 29.434 20.937 29.294 24.709 29.412 28.31 29.374 28.429 18.289 28.511 7.212 28.429-3.802 21.8-4.599 18.207-1.988 15.941 2.015 15.425 2.928 14.917 4.122 14.817 5.095 14.629 6.809 14.817 8.728 14.817 10.503 14.817 15.69 14.758 20.475 14.695 25.875 13.883 26.015 12.808 25.893 11.896 25.933 11.809 20.896 11.896 17.313 11.896 11.506 11.896 6.458 11.946 1.239 11.836-3.866 9.579-3.662 7.352-4.206 5.596-3.684 3.208-2.98 1.732-1.085 0 0M17.426 34.892C20.104 34.791 23.194 34.791 25.873 34.892 25.771 35.796 25.469 36.67 25.1 37.502 24.769 38.253 24.369 39.138 23.915 39.757 23.705 40.049 23.325 40.268 23.025 40.59 22.72 40.903 22.5 41.292 22.191 41.544 21.547 42.058 20.675 42.587 19.985 42.909 19.312 43.221 18.508 43.471 17.545 43.38L17.376 43.197C17.406 40.452 17.294 37.551 17.426 34.892M17.969 3.498C19.421 .609 22.371-1.095 25.873-1.906 25.804 7.772 26.033 18.137 25.753 27.417H17.376C17.294 27.388 17.244 27.337 17.253 27.237V10.442C17.253 7.904 17.054 5.315 17.969 3.498" fill="#f78e1e"/>
<path transform="matrix(1,0,0,-1,93.0244,58.369997)" stroke-width="1.2" stroke-linecap="butt" stroke-miterlimit="4" stroke-linejoin="miter" fill="none" stroke="#f78e1e" d="M0 0C-.041-1.226 .117-2.65-.113-3.684-.955-3.635-1.778-3.673-2.559-3.694L-2.611-2.029C-2.501 7.913-2.781 18.647-2.611 28.843-1.717 28.802-.673 28.923 .117 28.783 .127 23.255 .179 17.426 .179 11.624 .179 9.129-.073 6.076 .539 4.323 1.714 .951 5.324-.924 9.219-1.546 9.307 9.342 9.068 18.729 9.219 29.133 10.964 29.175 12.87 29.063 14.515 29.193V32.877C12.962 33.038 10.913 32.834 9.518 32.995 8.614 38.614 5.847 42.386 .479 43.563L.419 43.38C.378 40.059 .5 36.577 .36 33.348-.634 33.388-1.778 33.279-2.67 33.405-2.912 37.87-5.31 40.329-8.089 42.196-9.133 42.899-10.435 43.511-11.832 43.501-12.012 40.24-11.771 36.559-11.95 33.287-13.515 33.117-15.503 33.348-17.069 33.178-17.168 31.901-17.138 30.196-17.127 29.021-16.869 29.013-16.597 29.013-16.338 29.013L-16.325 27.228C-17.059 27.228-17.849 27.196-18.977 27.237-18.885 30.065-19.136 32.524-18.977 35.192-17.682 35.362-15.984 35.144-14.69 35.313-14.51 38.755-14.749 42.606-14.57 46.048-12.933 45.945-11.35 46.188-9.993 46.048-8.107 45.869-6.603 44.945-5.29 44.094-3.935 43.221-2.872 42.006-1.778 41.013V45.989C-.374 46 1.211 46.188 2.448 46.048 5.104 45.747 7.07 43.793 8.445 42.076 9.991 40.149 11.003 37.81 11.896 35.605H14.758C14.928 38.955 14.695 42.708 14.876 46.048 19.188 46.44 22.05 45.448 24.209 43.501 25.641 42.207 26.736 40.688 27.659 38.693 27.928 38.122 28.291 37.551 28.37 37.089 28.611 35.726 28.189 34.32 28.37 32.995 24.878 32.813 20.976 33.053 17.483 32.877 17.356 31.844 17.464 30.558 17.426 29.434 20.937 29.294 24.709 29.412 28.31 29.374 28.429 18.289 28.511 7.212 28.429-3.802 21.8-4.599 18.207-1.988 15.941 2.015 15.425 2.928 14.917 4.122 14.817 5.095 14.629 6.809 14.817 8.728 14.817 10.503 14.817 15.69 14.758 20.475 14.695 25.875 13.883 26.015 12.808 25.893 11.896 25.933 11.809 20.896 11.896 17.313 11.896 11.506 11.896 6.458 11.946 1.239 11.836-3.866 9.579-3.662 7.352-4.206 5.596-3.684 3.208-2.98 1.732-1.085 0 0ZM17.426 34.892C20.104 34.791 23.194 34.791 25.873 34.892 25.771 35.796 25.469 36.67 25.1 37.502 24.769 38.253 24.369 39.138 23.915 39.757 23.705 40.049 23.325 40.268 23.025 40.59 22.72 40.903 22.5 41.292 22.191 41.544 21.547 42.058 20.675 42.587 19.985 42.909 19.312 43.221 18.508 43.471 17.545 43.38L17.376 43.197C17.406 40.452 17.294 37.551 17.426 34.892ZM17.969 3.498C19.421 .609 22.371-1.095 25.873-1.906 25.804 7.772 26.033 18.137 25.753 27.417H17.376C17.294 27.388 17.244 27.337 17.253 27.237V10.442C17.253 7.904 17.054 5.315 17.969 3.498Z"/>
<path transform="matrix(1,0,0,-1,142.9268,45.259698)" d="M0 0C-.171-5.728 .058-11.558-.114-17.327-6.293-17.857-9.964-15.451-12.19-11.749-12.763-10.793-13.394-9.612-13.557-8.488-13.647-7.897-13.497-7.182-13.497-6.472-13.557 1.205-13.325 9.13-13.325 16.974-13.325 19.846-13.473 22.544-12.845 24.691-11.989 27.6-10.272 29.881-7.968 31.224-5.73 32.527-2.961 32.746 .279 32.768L.299 30.531C-.242 30.531-.784 30.51-1.306 30.452-2.098 30.35-3.221 30.029-3.986 29.737-4.606 29.496-5.271 29.086-5.889 28.725-7.697 27.701-9.36 26.075-10.104 24.099-11.138 21.39-10.768 17.979-10.768 14.487V.834C-10.768-1.465-10.908-3.79-10.768-5.99-10.638-7.914-10.204-9.333-9.513-10.622-8.247-13.011-5.678-14.667-2.62-14.955-2.529-8.92-2.76-2.179-2.561 2.908H9.642C9.82 5.358 9.691 9.021 9.642 12.228 9.008 12.24 8.375 12.24 7.734 12.24L7.724 14.428C9.229 14.436 10.725 14.436 12.2 14.428 12.156 9.592 12.247 4.023 12.2 .06 8.156 .021 3.95 .142 0 0" fill="#f78e1e"/>
<path transform="matrix(1,0,0,-1,142.9268,45.259698)" stroke-width="1.2" stroke-linecap="butt" stroke-miterlimit="4" stroke-linejoin="miter" fill="none" stroke="#f78e1e" d="M0 0C-.171-5.728 .058-11.558-.114-17.327-6.293-17.857-9.964-15.451-12.19-11.749-12.763-10.793-13.394-9.612-13.557-8.488-13.647-7.897-13.497-7.182-13.497-6.472-13.557 1.205-13.325 9.13-13.325 16.974-13.325 19.846-13.473 22.544-12.845 24.691-11.989 27.6-10.272 29.881-7.968 31.224-5.73 32.527-2.961 32.746 .279 32.768L.299 30.531C-.242 30.531-.784 30.51-1.306 30.452-2.098 30.35-3.221 30.029-3.986 29.737-4.606 29.496-5.271 29.086-5.889 28.725-7.697 27.701-9.36 26.075-10.104 24.099-11.138 21.39-10.768 17.979-10.768 14.487V.834C-10.768-1.465-10.908-3.79-10.768-5.99-10.638-7.914-10.204-9.333-9.513-10.622-8.247-13.011-5.678-14.667-2.62-14.955-2.529-8.92-2.76-2.179-2.561 2.908H9.642C9.82 5.358 9.691 9.021 9.642 12.228 9.008 12.24 8.375 12.24 7.734 12.24L7.724 14.428C9.229 14.436 10.725 14.436 12.2 14.428 12.156 9.592 12.247 4.023 12.2 .06 8.156 .021 3.95 .142 0 0Z"/>
<path transform="matrix(1,0,0,-1,77.3623,36.233297)" d="M0 0C.184 1.454-.052 2.996 0 4.516-1.201 4.478-2.567 4.597-3.67 4.457-2.252 3.167-.896 1.814 0 0M-33.95 22.515C-35.347 23.143-36.517 23.52-38.162 23.899-39.161 24.13-40.208 24.468-41.171 24.504-44.119 24.612-46.669 24.243-49.176 23.602-52.205 22.82-54.645 21.858-57.003 20.468-57.499 20.177-58.009 19.86-58.509 19.505-59.004 19.158-59.632 18.882-60.015 18.543-60.208 18.373-60.301 18.052-60.497 17.882-60.928 17.507-61.513 17.218-61.882 16.857-63.101 15.663-64.163 14.214-65.011 12.763-65.454 12.011-65.916 11.238-66.274 10.416-67.011 8.749-67.538 6.909-67.9 4.937-68.801 .024-68.183-5.787-66.816-9.75-66.118-11.157-65.498-12.697-64.831-13.965-64.405-14.771-63.768-15.651-63.265-16.25-62.393-17.291-61.592-18.323-60.678-19.261-59.067-20.912-57.099-22.058-55.02-23.237-54.692-23.418-54.308-23.565-53.935-23.714-52.899-24.132-51.821-24.587-50.565-25.039-49.705-25.347-48.749-25.717-48.038-25.763-47.109-25.82-46.055-25.763-45.024-25.763-43.982-25.763-42.954-25.829-41.894-25.823-33.128-25.763-24.312-25.602-15.831-25.823-14.293-25.863-12.672-26.042-11.258-25.881-10.824-25.833-10.318-25.647-9.873-25.52-8.475-25.131-7.323-24.522-6.078-24.077-4.589-22.997-3.148-21.918-1.983-20.523-1.085-19.444-.417-18.177 .181-16.913 .387-16.487 .497-16.004 .784-15.589 1.732-17.954 2.844-20.483 4.457-22.207 5.019-22.812 5.58-23.53 6.142-23.954 8.245-25.56 11.378-26.233 15.351-25.7 15.387-24.489 15.279-22.824 15.414-21.909 16.944-23.079 18.365-24.724 20.288-25.462 20.532-25.553 20.789-25.755 21.008-25.823 22.735-26.339 25.104-26 27.271-25.942 27.433-15.908 27.135-5.941 27.39 3.854 28.392 3.831 29.493 3.913 30.403 3.796 30.459-1.292 30.403-6.67 30.403-11.858 30.403-13.643 30.188-15.479 30.403-17.156 30.502-17.971 30.896-18.912 31.243-19.682 31.804-20.931 32.508-21.814 33.289-22.631 34.106-23.483 34.881-24.249 35.88-24.86 36.968-25.273 37.981-25.771 39.311-25.942 40.651-26.115 42.181-26.061 43.882-26.063 43.904-14.763 43.958-4.31 43.882 7.105 40.193 7.191 36.627 7.062 32.988 7.224 32.94 8.404 32.822 9.801 33.049 10.898 36.761 10.752 40.021 10.844 43.882 10.841 43.688 12.179 44.158 13.441 43.947 14.81 43.866 15.321 43.557 15.916 43.342 16.437 41.914 19.882 38.815 23.148 34.796 23.781 33.33 24.009 31.967 23.687 30.581 23.84 30.494 20.44 30.65 16.648 30.459 13.366H27.449C25.94 16.925 24.351 20.541 21.19 22.576 19.311 23.788 17.083 24.102 13.969 23.84 13.718 22.197 14.209 20.16 13.846 18.603 11.07 21.943 7.69 24.635 1.024 23.84 .884 20.335 1.107 16.767 .904 13.123-.296 13.072-2.135 13.214-3.428 13.065-3.386 10.211-3.5 7.935-3.371 5.239-1.853 5.23-.345 5.212 1.086 5.121 1.146 2.472 1.115 .367 1.086-2.225-.196-.762-1.15 1.024-2.585 2.349-2.839 2.58-3.191 2.813-3.491 3.069-4.907 4.303-6.317 5.324-8.064 6.142-8.681 6.432-9.278 6.726-9.932 6.925-12.927 7.841-16.202 7.578-19.021 6.743-21.146 6.117-22.736 5.19-24.198 4.097-28.549 .836-30.925-4.298-30.519-11.797-34.257-11.917-37.65-11.71-41.113-11.797-42.508-11.831-43.979-11.983-45.447-11.858-46.467-11.768-47.322-11.439-48.156-11.136-50.505-10.278-52.906-7.774-53.693-5.355-54.537-2.769-54.608 .233-53.876 2.829-53.306 4.844-51.729 6.651-50.264 7.768-48.419 9.172-45.647 10.153-42.437 10.114-39.464 10.082-36.907 8.842-35.515 7.166-35.191 6.78-35.083 6.275-34.552 6.084-32.797 7.5-31.393 9.36-29.858 11.017-28.3 12.694-26.646 14.247-25.342 16.016-27.478 18.723-30.564 20.997-33.95 22.515M-24.319 16.016C-25.833 13.892-27.802 12.191-29.495 10.237-31.178 8.294-32.959 6.434-34.792 4.638-35.629 5.607-36.085 6.501-37.02 7.166-39.25 8.745-43.4 9.752-46.652 8.79-47.585 8.513-49.115 7.719-49.901 7.105-51.811 5.613-53.081 3.239-53.451 .241-53.873-3.15-52.518-6.105-50.746-7.884-49.981-8.649-49.107-9.482-48.097-9.931-47.75-10.082-47.273-10.175-46.83-10.354-46.24-10.589-45.783-10.838-45.088-10.893-42.982-11.063-40.546-10.754-38.102-10.833-35.743-10.907-33.4-10.776-31.362-10.893-31.365-8.688-31.224-6.556-30.759-4.632-30.436-3.292-30.244-2.328-29.676-1.082-29.189-.016-28.515 1.036-27.747 1.928-25.514 4.55-22.669 6.519-18.72 7.587-17.63 7.88-16.395 8.153-15.289 8.251-13.635 8.391-12.102 7.841-10.473 7.768-9.357 7.442-8.292 7.051-7.283 6.622-6.233 6.179-5.395 5.598-4.512 5.177-4.393 8.15-4.52 10.725-4.451 13.728H0C.15 17.548 .014 21.393 .12 25.346 1.933 25.301 3.521 25.489 5.118 25.346 6.347 25.233 7.531 24.793 8.486 24.383 9.787 23.826 10.716 22.784 11.799 22.094 12.061 21.471 12.544 21.073 12.881 20.53 12.971 21.929 12.782 23.987 12.945 25.285 22.337 26.263 25.961 21.082 27.813 14.209H29.196C29.344 17.217 29.239 21.231 29.259 24.684 32.997 24.954 35.911 24.845 38.406 23.479 38.987 23.161 39.546 22.793 40.092 22.396 42.39 20.711 43.926 17.922 44.728 14.69 45.066 13.326 44.69 11.358 44.667 9.813 41.151 9.801 37.482 9.786 33.831 9.813 33.655 9.365 33.909 8.855 33.831 8.309 37.602 8.149 41.051 8.382 44.789 8.19 44.681-3.319 44.771-15.211 44.728-27.148 40.628-27.222 37.329-27.115 34.796-25.52 34.638-25.424 34.542-25.217 34.374-25.099 33.935-24.8 33.652-24.631 33.229-24.259 33.132-24.17 33.024-24.039 32.93-23.954 31.688-22.882 30.431-21.013 29.802-19.321 29.169-17.633 29.086-14.755 29.196-12.219 29.42-7.157 29.079-1.937 29.196 3.194 28.942 3.32 28.461 3.222 28.111 3.252 27.887-6.341 28.182-17.003 27.933-26.907 25.603-26.979 23.216-27.148 21.251-26.665 19.095-26.135 17.596-24.872 16.256-23.535 15.96-24.423 16.276-25.924 16.074-26.907 7.365-27.723 2.692-24.259 .965-17.817-.9-22.333-4.822-24.968-9.809-26.544-10.219-26.675-10.588-26.962-10.952-27.027-11.809-27.176-12.848-26.971-13.904-26.963-24.368-26.911-34.789-26.907-45.327-26.907-48.153-26.907-50.425-26.17-52.672-25.344-53.021-25.213-53.344-24.984-53.693-24.86-54.083-24.721-54.511-24.724-54.836-24.56-55.133-24.41-55.377-24.122-55.681-23.954-56.594-23.468-57.509-22.988-58.389-22.45-59.538-21.753-60.533-20.827-61.46-19.922-63.376-18.059-65.055-15.864-66.157-13.361-66.886-12.278-67.42-10.904-67.9-9.449-69.217-5.481-70.09 .322-68.683 4.878-68.663 6.008-68.213 7.072-67.9 8.008-67.233 10.009-66.478 11.925-65.373 13.545-64.464 14.876-63.603 16.223-62.422 17.34-61.673 18.048-60.857 18.716-60.074 19.445-58.512 20.902-56.423 21.793-54.416 22.814-52.356 23.866-49.874 24.58-47.673 25.045-46.687 25.252-45.303 25.419-44.304 25.468-43.242 25.515-42.271 25.358-41.233 25.346-40.239 25.331-39.17 25.056-38.223 24.862-35.406 24.291-32.864 23.268-30.639 22.155-28.124 20.514-25.789 18.698-24.319 16.016" fill="#7e4300" fill-rule="evenodd"/>
<path transform="matrix(1,0,0,-1,170.1875,14.498898)" d="M0 0C-1.188 .736-2.557 1.563-4.271 1.745-6.184 1.946-8.51 1.848-10.654 1.745-12.816 1.643-15.056 1.764-17.216 1.745-19.159 1.725-21.152 1.837-23.177 1.745-25.905 1.621-28.536 1.971-30.941 1.684-33.098 1.43-34.83 .61-36.118-.36-37.266-1.226-38.164-2.232-38.888-3.433-39.626-4.656-40.288-6.452-40.455-8.247-40.6-9.86-40.539-11.571-40.513-13.303-40.455-17.157-40.755-20.944-40.755-24.683-40.755-28.366-40.691-32.064-40.813-35.576-40.854-36.817-40.899-38.134-40.813-39.249-40.764-39.936-40.381-40.723-40.091-41.416-39.391-43.098-38.75-43.859-37.623-45.029-35.42-47.314-32.07-48.653-27.571-48.159-27.474-42.358-27.59-36.201-27.451-30.763-23.19-30.646-19.163-30.925-15.229-30.703-15.295-25.831-15.101-20.937-15.229-16.495-19.08-16.407-23.229-16.55-27.148-16.435-27.109-15.112-27.229-13.626-27.09-12.401-20.967-12.429-14.59-12.325-8.487-12.462-8.569-19.756-8.504-26.983-8.607-34.312H-20.648C-20.996-38.684-19.885-42.463-17.815-44.727-16.457-46.221-13.825-47.88-11.316-48.159-9.849-48.32-8.157-47.943-6.44-48.159-6.297-46.622-6.425-44.537-6.383-43.103-5.257-44.079-4.112-45.199-2.708-46.171-1.432-47.058 .206-48.186 2.045-48.221 3.247-48.241 4.557-47.975 5.898-48.159 6.034-46.622 5.907-44.521 6.019-43.163 6.914-44.051 7.801-45.111 8.91-45.993 9.953-46.819 11.135-47.798 12.701-47.979 13.972-48.125 15.34-47.783 16.914-47.92 16.936-46.239 17.054-44.508 16.914-42.741 17.762-43.469 18.683-44.303 19.505-45.029 19.797-45.286 20.047-45.649 20.348-45.871 20.59-46.051 20.953-46.145 21.251-46.352 22-46.871 22.987-47.604 23.899-47.855 25.351-48.262 26.9-47.811 28.716-47.979 28.915-36.957 28.795-25.937 28.774-14.511 25.144-14.498 21.234-14.629 17.757-14.45 17.836-13.301 17.592-12.116 17.88-11.259 21.481-11.295 25.411-11.352 28.716-11.259 28.619-10.18 28.862-8.466 28.652-7.466 28.436-6.417 27.778-5.165 27.092-3.976 25.654-1.514 23.752 .408 20.948 1.323 19.371 1.838 17.183 1.472 15.11 1.624 15.069 .299 15.185-1.183 15.048-2.409 13.6-1.185 12.13 .151 10.293 1.021 8.426 1.906 6.257 1.728 3.431 1.745 3.294 .441 3.556-1.178 3.368-2.649 2.279-1.762 1.288-.803 0 0M2.41 3.069C4.685 3.004 6.791 3.221 8.489 2.889 9.683 2.651 10.798 1.995 11.736 1.444 12.706 .873 13.581 .132 14.326-.604 14.393 .312 14.231 1.558 14.387 2.526 16.491 2.444 18.669 2.682 20.647 2.526 21.747 2.44 23.323 1.577 24.198 1.021 27.915-1.335 30.178-5.643 29.617-12.16 26.405-12.215 22.306-12.237 18.842-12.219 18.707-12.59 18.814-13.197 18.781-13.666 22.411-13.577 25.93-13.762 29.617-13.666 29.642-25.327 29.667-37.044 29.617-49.003 27.772-48.85 26.108-49.254 24.681-49.003 23.944-48.872 23.106-48.473 22.394-48.159 20.642-47.385 19.184-46.465 17.999-45.147 17.966-46.421 18.065-47.828 17.938-49.003 15.967-48.81 14.348-49.23 12.701-49.003 11.904-48.892 10.945-48.399 10.173-47.979 8.727-47.191 7.564-46.342 6.622-45.147 6.649-46.612 6.521-47.601 6.563-49.123 .907-49.74-3.457-48.082-5.84-44.908-5.927-46.171-5.84-47.636-5.96-49.003-8.922-48.892-11.666-49.609-13.845-48.762-14.339-48.568-14.991-48.164-15.53-47.855-18.446-46.213-20.403-43.337-21.309-39.552-21.753-37.702-21.908-35.825-21.791-33.712-17.764-33.701-13.647-33.775-9.392-33.651-9.354-26.804-9.431-19.966-9.392-13.184-15.006-13.24-20.526-13.155-26.369-13.184-26.506-13.79-26.392-14.647-26.427-15.353-22.746-15.587-18.197-15.334-14.268-15.473-14.237-20.756-14.353-26.053-14.328-31.245-18.358-31.269-22.207-31.204-26.369-31.245-26.521-37.271-26.304-42.972-26.545-49.003-28.332-48.94-29.859-49.15-31.361-49.003-32.6-48.88-33.791-48.262-34.914-47.798-37.271-46.825-38.915-45.193-40.271-43.285-40.646-42.215-41.285-41.14-41.414-39.851-41.622-37.803-41.414-35.431-41.414-33.171-41.414-26.573-41.408-19.184-41.358-13.063-41.334-10.387-41.589-7.259-40.933-5.178-40.838-4.87-40.615-4.518-40.455-4.153-39.818-2.738-39.121-1.448-38.104-.36-37.159 .648-35.03 2.013-33.289 2.466-32.631 2.639-31.884 2.818-31.302 2.827-30.752 2.837-30.203 2.685-29.618 2.709-25.779 2.851-21.538 2.605-17.638 2.648-15.326 2.673-12.927 2.539-10.654 2.648-8.346 2.756-6.055 2.8-3.915 2.709-3.678 2.697-3.378 2.646-3.129 2.588-.893 2.059 .9 .825 2.286-.421 2.443 .43 2.299 1.77 2.346 2.889Z" fill="#7e4300" fill-rule="evenodd"/>
<path transform="matrix(1,0,0,-1,48.6484,20.519398)" d="M0 0C-1.711-2.404-3.873-4.354-5.838-6.503-6.731-6.211-6.775-5.785-7.281-5.359-9.388-3.591-13.235-2.877-16.552-3.251-18.982-3.525-20.76-4.274-22.391-5.477-23.024-5.943-23.709-6.39-24.199-6.924-24.36-7.102-24.436-7.413-24.621-7.646-25.591-8.873-26.477-10.076-27.089-11.8-27.484-12.917-27.908-14.652-28.048-16.074-28.156-17.146-28.111-18.708-27.809-19.504-27.667-21.95-26.636-23.506-25.702-25.163-25.083-25.625-24.612-26.258-24.016-26.788-22.722-27.94-21.082-28.963-19.142-29.556-18.081-29.884-16.975-30.341-15.832-30.46-14.68-30.58-13.475-30.441-12.278-30.397-8.762-30.279-5.282-30.563-1.685-30.521-.79-34.805 2.074-37.115 4.817-39.55-.208-39.593-5.372-39.61-10.353-39.61-12.066-39.61-13.8-39.809-15.47-39.668-16.393-39.593-17.326-39.337-18.237-39.127-20.091-38.708-21.732-38.333-23.294-37.623-24.048-37.279-24.835-37.055-25.522-36.721-26.726-36.137-27.884-35.174-28.952-34.312-29.478-33.888-29.983-33.426-30.458-32.929-31.478-31.861-32.36-30.815-33.286-29.618-33.989-28.232-34.702-26.858-35.396-25.464-36.036-23.653-36.427-21.718-36.72-19.625-37.024-17.44-36.782-15.132-36.479-13.186-35.872-9.302-34.38-5.831-32.385-3.129-31.714-2.224-31.06-1.238-30.339-.482-29.136 .787-27.195 1.875-25.642 2.889-22.979 4.63-18.983 5.63-15.227 6.079-14.433 6.174-13.518 6.109-12.759 6.079-11.038 6.011-9.126 5.466-7.462 4.934-4.454 3.979-1.835 2.162 0 0" fill="#7e4300" fill-rule="evenodd"/>
<path transform="matrix(1,0,0,-1,102.5259,25.334797)" d="M0 0C1.545-.113 3.374 .097 4.995-.058 4.904-1.386 5.246-2.823 4.936-3.974 3.164-3.888 1.486-3.939-.299-3.974-.422-14.363-.342-24.636-.422-34.734-4.795-33.906-8.347-32.157-9.45-28.173-9.997-26.21-9.573-23.292-9.573-21.067-9.573-15.539-9.688-9.562-9.631-4.276-10.433-4.118-11.219-4.31-12.041-4.214-12.346-14.358-12.104-24.807-12.219-35.215-13.209-35.153-14.138-34.853-14.987-34.494-15.818-34.145-16.677-33.812-17.397-33.409-18.416-32.841-19.453-31.762-20.167-30.759-21.108-29.441-21.959-27.348-22.216-25.224-22.409-23.575-22.166-21.772-22.216-19.985-22.255-18.311-22.073-16.58-22.094-14.929-22.131-11.221-22.17-7.627-22.153-4.033-23.582-3.912-25.2-4.006-26.846-3.974-26.803-2.435-26.99-.994-26.729 .361-24.938 .346-23.439 .308-21.67 .361-21.489 3.632-21.629 7.29-21.609 10.593-20.177 10.714-19.397 10.23-18.3 9.632-15.958 8.352-14.027 6.548-12.883 4.032-12.474 3.13-12.25 1.644-12.159 .422-11.207 .252-10.391 .555-9.391 .422-9.029 3.528-9.421 7.458-9.211 10.716-3.815 9.47-.843 5.797 0 0" fill="#7e4300" fill-rule="evenodd"/>
<path transform="matrix(1,0,0,-1,164.4688,14.681496)" d="M0 0H.12C3.84-.857 5.875-3.206 7.944-5.899 8.253-6.299 8.584-6.772 8.849-7.283 9.105-7.785 9.487-8.373 9.569-8.789 9.69-9.39 9.528-10.229 9.513-11.016 9.392-16.313 9.513-21.809 9.513-27.269 9.513-33.646 9.569-39.75 9.513-45.629 4.541-45.462 1.737-42.264 .36-38.225 .26-37.93 .212-37.582 .12-37.261 .029-36.949-.14-36.7-.181-36.419-.377-35.058-.257-33.344-.181-31.843-.106-30.332-.181-28.8-.181-27.329-.179-18.169-.115-9.538-.121-.178-.124-.077-.075-.022 0 0" fill="#7e4300" fill-rule="evenodd"/>
<path transform="matrix(1,0,0,-1,176.2061,14.681496)" d="M0 0C2.752-.609 4.646-2.114 6.201-4.092 6.794-4.846 7.414-5.68 7.947-6.742 8.3-7.447 8.745-8.265 8.85-8.908 8.963-9.605 8.836-10.505 8.85-11.314 9.023-22.724 8.772-34.707 8.729-45.868 5.837-45.992 3.632-44.561 2.169-42.74 1.309-41.671 .535-39.835 .181-38.225 .115-37.919 .129-37.556 .061-37.261-.005-36.977-.146-36.738-.18-36.477-.366-35.024-.18-33.357-.18-31.781-.18-25.746-.12-19.926-.12-13.727-.12-9.152-.216-4.654-.12-.178-.123-.077-.074-.022 0 0" fill="#7e4300" fill-rule="evenodd"/>
<path transform="matrix(1,0,0,-1,161.2793,14.801598)" d="M0 0C-.113-3.189 .207-6.488-.063-9.45-6.723-10.093-13.974-9.421-20.71-9.57-20.716-12.714-20.743-15.232-20.771-18.299-16.693-18.306-12.805-18.283-8.608-18.362-8.655-21.229-8.456-24.781-8.67-27.749-12.78-27.742-16.703-27.687-20.889-27.811-21.055-33.62-20.956-39.728-20.948-45.69-24.425-45.304-27.315-43.377-28.534-40.271-29.59-37.588-29.316-33.476-29.316-29.677-29.316-24.158-29.206-18.245-29.257-12.94-29.267-11.748-29.431-10.563-29.316-9.51-29.243-8.822-29.026-8.122-28.835-7.466-28.39-5.933-28.1-5.239-27.089-4.092-26.659-3.604-26.239-3.097-25.767-2.709-24.133-1.371-22.033-.453-19.688 0-18.251 .279-16.185-.063-14.509 0-9.79 .176-5.002-.085 0 0" fill="#7e4300" fill-rule="evenodd"/>
<path transform="matrix(1,0,0,-1,110.4707,14.919796)" d="M0 0C1.427 .137 2.198-.28 3.192-.846 5.314-2.054 6.902-3.82 7.948-6.261 8.271-7.015 8.468-7.947 8.43-8.793 5.661-8.649 2.622-8.887-.12-8.61-.072-5.763-.267-2.746 0 0" fill="#7e4300" fill-rule="evenodd"/>
<path transform="matrix(1,0,0,-1,196.5527,23.891495)" d="M0 0C-2.971-.049-6.013-.055-9.088 0-9.082 3.018-9.202 5.575-9.029 8.429-3.9 7.95-1.187 4.564 0 0" fill="#7e4300" fill-rule="evenodd"/>
<path transform="matrix(1,0,0,-1,118.9004,30.993996)" d="M0 0C.021-9.811-.053-19.593-.061-29.498-1.174-29.251-2.256-28.936-3.19-28.477-4.86-27.649-6.393-26.708-7.406-25.222-7.653-24.858-7.869-24.285-8.126-23.778-9.228-21.626-8.666-18.429-8.789-15.11-8.959-10.533-8.65-6.3-8.789-1.806-8.801-1.474-8.795-1.112-8.789-.782-8.784-.538-8.939-.094-8.608 .061-5.896 .016-2.692 .164 0 0" fill="#7e4300" fill-rule="evenodd"/>
<path transform="matrix(1,0,0,-1,196.6104,31.355397)" d="M0 0C.076-9.604 .117-19.66 0-29.074-.194-29.191-.359-29.003-.537-28.955-1.766-28.624-2.813-28.387-3.849-27.87-5.885-26.857-7.366-25.58-8.365-23.417-8.845-22.371-9.255-21.408-9.328-19.926-9.48-16.853-9.268-13.379-9.268-9.932-9.268-6.528-9.307-3.118-9.328 0-5.906 .205-3.302-.007 0 0" fill="#7e4300" fill-rule="evenodd"/>
<path transform="matrix(1,0,0,-1,63.6392,50.198099)" d="M0 0C1.819 .006 3.139 1.03 3.851 2.048 5.885 4.957 3.831 8.973 .901 9.513-.362 9.745-1.842 9.434-2.711 8.85-3.887 8.064-5.132 6.388-4.879 4.337-4.732 3.17-4.187 2.358-3.551 1.446-2.561 .854-1.635-.003 0 0M-.904 18.542C1.658 18.593 4.154 17.903 5.958 16.917 7.054 16.318 7.696 15.933 8.549 15.173 8.813 14.931 9.19 14.755 9.449 14.51 10.246 13.761 11.184 12.331 11.799 11.257 12.573 9.91 13.205 8.026 13.424 6.081 13.662 3.985 13.371 2.15 12.881 .361 12.704-.286 12.337-.901 12.041-1.565 11.766-2.167 11.548-2.809 11.199-3.31 10.154-4.783 8.5-6.564 6.803-7.524 5.757-8.111 5.046-8.409 3.851-8.786 1.933-9.394-.796-9.743-3.371-9.272-3.773-9.195-4.249-8.996-4.694-8.85-7.118-8.054-9.183-6.871-10.775-5.174-11.204-4.718-11.547-4.137-11.919-3.61-12.675-2.541-13.432-1.355-13.846-.118-14.779 2.671-14.96 5.984-13.907 9.09-12.761 12.473-10.475 14.846-7.586 16.736-7.045 17.089-6.341 17.417-5.718 17.639-4.317 18.13-2.653 18.505-.904 18.542" fill="#7e4300" fill-rule="evenodd"/>
<path transform="matrix(1,0,0,-1,73.6924,31.776295)" d="M0 0C1.103 .14 2.469 .021 3.67 .059 3.618-1.461 3.854-3.003 3.67-4.457 2.773-2.643 1.418-1.29 0 0" fill="#ffffff" fill-rule="evenodd"/>
<path transform="matrix(1,0,0,-1,61.834,44.056497)" d="M0 0C-.211-.541-.421-1.072-.303-1.626 .106-3.471 2.911-3.854 3.607-1.985 4.484 .16 1.355 1.653 0 0M-1.746-4.695C-2.381-3.783-2.927-2.972-3.074-1.805-3.327 .246-2.082 1.923-.906 2.708-.037 3.292 1.443 3.604 2.706 3.371 5.636 2.831 7.69-1.185 5.656-4.094 4.944-5.111 3.624-6.136 1.805-6.142 .17-6.145-.755-5.288-1.746-4.695" fill="#f78e1e" fill-rule="evenodd"/>
<path transform="matrix(1,0,0,-1,65.022,45.9833)" d="M0 0C.887 2.5-3.222 3.109-3.129 .663-3.1-.097-2.51-.397-2.045-.843-1.571-.889-1.314-.889-.839-.843-.496-.466-.135-.378 0 0M.419-.059C-.277-1.927-3.082-1.544-3.491 .301-3.609 .854-3.399 1.386-3.188 1.927-1.833 3.58 1.296 2.087 .419-.059" fill="#7e4300" fill-rule="evenodd"/>
<path transform="matrix(1,0,0,-1,64.1831,46.826097)" d="M0 0C-.476-.046-.732-.046-1.207 0-1.671 .445-2.261 .746-2.29 1.506-2.383 3.952 1.726 3.343 .839 .843 .704 .465 .343 .377 0 0" fill="#ffffff" fill-rule="evenodd"/>
<path transform="matrix(1,0,0,-1,161.0361,51.4003)" d="M0 0C.256-3.023-.038-6.237 .062-9.511-2.23-9.383-3.987-8.523-5.716-7.403-8.074-5.881-9.702-3.572-9.754 .06-6.543 .068-3.062 .102 0 0" fill="#7e4300" fill-rule="evenodd"/>
<path transform="matrix(1,0,0,-1,172.5332,11.610195)" stroke-width=".659" stroke-linecap="butt" stroke-miterlimit="4" stroke-linejoin="miter" fill="none" stroke="#7e4300" d="M0 0C-.047-1.119 .098-2.459-.06-3.31-1.445-2.063-3.238-.83-5.475-.301-5.724-.243-6.023-.191-6.261-.18-8.4-.089-10.691-.133-13-.24-15.272-.35-17.672-.216-19.983-.24-23.884-.283-28.125-.038-31.964-.18-32.549-.204-33.098-.052-33.647-.062-34.229-.07-34.977-.25-35.635-.423-37.376-.876-39.505-2.24-40.449-3.249-41.467-4.337-42.164-5.627-42.801-7.042-42.961-7.406-43.184-7.759-43.278-8.066-43.935-10.147-43.68-13.275-43.704-15.952-43.754-22.072-43.76-29.462-43.76-36.06-43.76-38.319-43.968-40.691-43.76-42.739-43.631-44.028-42.991-45.104-42.616-46.174-41.261-48.082-39.617-49.714-37.26-50.687-36.137-51.15-34.945-51.769-33.707-51.892-32.205-52.039-30.678-51.829-28.891-51.892-28.649-45.86-28.867-40.159-28.715-34.134-24.553-34.093-20.704-34.157-16.674-34.134-16.698-28.941-16.583-23.645-16.613-18.361-20.543-18.223-25.092-18.476-28.772-18.241-28.737-17.536-28.852-16.679-28.715-16.072-22.872-16.044-17.352-16.129-11.737-16.072-11.776-22.854-11.699-29.692-11.737-36.54-15.993-36.664-20.109-36.59-24.137-36.601-24.254-38.714-24.099-40.591-23.654-42.44-22.749-46.226-20.792-49.102-17.876-50.744-17.337-51.053-16.685-51.457-16.19-51.65-14.012-52.498-11.268-51.78-8.306-51.892-8.186-50.524-8.272-49.06-8.186-47.797-5.803-50.971-1.438-52.629 4.217-52.012 4.175-50.489 4.304-49.501 4.276-48.036 5.219-49.23 6.381-50.08 7.827-50.867 8.6-51.288 9.559-51.78 10.355-51.892 12.002-52.119 13.621-51.698 15.593-51.892 15.72-50.717 15.62-49.31 15.653-48.036 16.838-49.354 18.296-50.273 20.048-51.048 20.761-51.361 21.599-51.761 22.335-51.892 23.763-52.143 25.427-51.738 27.271-51.892 27.321-39.933 27.296-28.216 27.271-16.555 23.584-16.65 20.065-16.466 16.436-16.555 16.469-16.086 16.361-15.479 16.496-15.107 19.96-15.126 24.06-15.104 27.271-15.049 27.832-8.531 25.569-4.224 21.853-1.868 20.978-1.312 19.401-.448 18.302-.362 16.323-.207 14.146-.444 12.041-.362 11.886-1.331 12.047-2.577 11.98-3.492 11.235-2.757 10.36-2.016 9.391-1.444 8.452-.894 7.337-.237 6.144 0 4.445 .332 2.339 .115 .064 .181L0 0ZM-125.81-2.468C-128.035-1.355-130.577-.332-133.394 .239-134.341 .433-135.41 .708-136.404 .723-137.442 .735-138.413 .892-139.475 .845-140.474 .796-141.858 .629-142.844 .422-145.044-.043-147.527-.757-149.586-1.809-151.594-2.83-153.683-3.721-155.245-5.178-156.028-5.907-156.844-6.575-157.593-7.283-158.773-8.4-159.635-9.747-160.544-11.078-161.648-12.698-162.404-14.614-163.071-16.615-163.384-17.551-163.833-18.615-163.854-19.745-165.261-24.301-164.388-30.104-163.071-34.072-162.591-35.527-162.057-36.901-161.328-37.984-160.226-40.487-158.547-42.682-156.631-44.545-155.704-45.45-154.708-46.376-153.56-47.073-152.68-47.611-151.765-48.091-150.852-48.577-150.548-48.745-150.304-49.033-150.007-49.183-149.682-49.347-149.253-49.344-148.864-49.483-148.515-49.607-148.191-49.836-147.843-49.967-145.596-50.793-143.324-51.53-140.498-51.53-129.96-51.53-119.539-51.534-109.075-51.586-108.019-51.594-106.979-51.799-106.123-51.65-105.759-51.585-105.39-51.298-104.98-51.167-99.993-49.591-96.071-46.956-94.206-42.44-92.479-48.882-87.806-52.346-79.097-51.53-78.895-50.547-79.211-49.046-78.915-48.158-77.575-49.495-76.076-50.758-73.92-51.288-71.955-51.771-69.568-51.602-67.238-51.53-66.989-41.626-67.284-30.964-67.06-21.371-66.71-21.401-66.229-21.303-65.975-21.429-66.092-26.56-65.751-31.78-65.975-36.842-66.085-39.378-66.002-42.256-65.369-43.944-64.74-45.636-63.483-47.505-62.241-48.577-62.146-48.662-62.039-48.793-61.941-48.882-61.519-49.254-61.236-49.423-60.797-49.722-60.629-49.84-60.533-50.047-60.375-50.143-57.842-51.738-54.543-51.845-50.443-51.771-50.4-39.834-50.49-27.942-50.382-16.433-54.12-16.241-57.569-16.474-61.34-16.314-61.262-15.768-61.516-15.258-61.34-14.81-57.688-14.837-54.02-14.822-50.504-14.81-50.48-13.265-50.104-11.297-50.443-9.933-51.245-6.701-52.781-3.912-55.079-2.228-55.625-1.83-56.184-1.462-56.765-1.144-59.26 .222-62.174 .331-65.912 .061-65.932-3.392-65.827-7.406-65.975-10.414H-67.358C-69.209-3.541-72.833 1.64-82.226 .662-82.389-.636-82.2-2.694-82.29-4.093-82.627-3.55-83.11-3.152-83.372-2.529-84.455-1.839-85.384-.797-86.685-.24-87.64 .17-88.824 .61-90.053 .723-91.65 .866-93.238 .678-95.051 .723-95.157-3.23-95.021-7.075-95.171-10.896H-99.622C-99.69-13.898-99.564-16.473-99.683-19.446-100.565-19.025-101.404-18.444-102.454-18.001-103.463-17.572-104.528-17.181-105.644-16.855-107.273-16.782-108.806-16.232-110.459-16.372-111.565-16.47-112.801-16.743-113.891-17.036-117.84-18.104-120.685-20.073-122.918-22.695-123.686-23.587-124.36-24.639-124.847-25.705-125.415-26.951-125.606-27.915-125.93-29.255-126.395-31.179-126.536-33.311-126.533-35.516-128.571-35.399-130.914-35.53-133.272-35.456-135.717-35.377-138.153-35.686-140.259-35.516-140.954-35.461-141.411-35.212-142-34.978-142.444-34.798-142.921-34.705-143.268-34.554-144.278-34.105-145.152-33.272-145.917-32.507-147.688-30.729-149.044-27.773-148.622-24.382-148.252-21.384-146.982-19.01-145.072-17.518-144.286-16.904-142.756-16.11-141.823-15.833-138.571-14.871-134.421-15.878-132.19-17.457-131.256-18.122-130.8-19.016-129.963-19.985-128.13-18.189-126.349-16.329-124.666-14.386-122.973-12.432-121.003-10.731-119.49-8.607-120.959-5.925-123.295-4.109-125.81-2.468Z"/>
</g>
</g>
</svg>
